<mxfile host="65bd71144e">
    <diagram id="nf9wKMAh9Q2trwsyI6ou" name="Page-1">
        <mxGraphModel dx="1030" dy="518" grid="1" gridSize="10" guides="1" tooltips="1" connect="1" arrows="1" fold="1" page="1" pageScale="1" pageWidth="827" pageHeight="1169" math="0" shadow="0">
            <root>
                <mxCell id="0"/>
                <mxCell id="1" parent="0"/>
                <mxCell id="2" value="&lt;b&gt;index&lt;/b&gt;&lt;div&gt;Retornar la pÃ¡gina principal del gestor de productos&lt;/div&gt;" style="whiteSpace=wrap;html=1;" vertex="1" parent="1">
                    <mxGeometry x="80" y="80" width="190" height="90" as="geometry"/>
                </mxCell>
                <mxCell id="3" value="create&lt;br&gt;Retornar un formulario para crear un nuevo producto" style="whiteSpace=wrap;html=1;" vertex="1" parent="1">
                    <mxGeometry x="300" y="80" width="190" height="90" as="geometry"/>
                </mxCell>
                <mxCell id="4" value="show&lt;br&gt;Retornar un formulario para visualizar detalles de un producto" style="whiteSpace=wrap;html=1;" vertex="1" parent="1">
                    <mxGeometry x="300" y="200" width="190" height="90" as="geometry"/>
                </mxCell>
                <mxCell id="5" value="&lt;div&gt;&lt;font color=&quot;#ffffff&quot;&gt;edit&lt;br&gt;&lt;/font&gt;Retorna un formulario para modificar un producto&lt;/div&gt;" style="whiteSpace=wrap;html=1;" vertex="1" parent="1">
                    <mxGeometry x="80" y="200" width="191" height="90" as="geometry"/>
                </mxCell>
            </root>
        </mxGraphModel>
    </diagram>
</mxfile>
